<svg xmlns="http://www.w3.org/2000/svg" width="193" height="193" viewBox="0 0 193 193">
  <g id="Group_582" data-name="Group 582" transform="translate(-862 -531)">
    <path id="basket" d="M42.75-1192.307c-11.367,0-17.519-9.444-20.583-20.58L0-1296.8a12.666,12.666,0,0,1,12.667-12.665H177.333A12.665,12.665,0,0,1,190-1296.8l-22.166,83.913c-3,11.2-9.216,20.58-20.584,20.58ZM88.027-1327.8a10.289,10.289,0,0,1,0-14.551l36.947-36.945a10.293,10.293,0,0,1,14.554,0,10.293,10.293,0,0,1,0,14.557L102.582-1327.8a10.253,10.253,0,0,1-7.277,3.015A10.257,10.257,0,0,1,88.027-1327.8Z" transform="translate(862 1916.308)" fill="#e3e0e0"/>
    <path id="basket-2" data-name="basket" d="M42.75-1192.307c-11.367,0-17.519-9.444-20.583-20.58L0-1296.8a12.666,12.666,0,0,1,12.667-12.665H177.333A12.665,12.665,0,0,1,190-1296.8l-22.166,83.913c-3,11.2-9.216,20.58-20.584,20.58ZM88.027-1327.8a10.289,10.289,0,0,1,0-14.551l36.947-36.945a10.293,10.293,0,0,1,14.554,0,10.293,10.293,0,0,1,0,14.557L102.582-1327.8a10.253,10.253,0,0,1-7.277,3.015A10.257,10.257,0,0,1,88.027-1327.8Z" transform="translate(865 1913.308)" fill="#efefef"/>
    <path id="Path_3929" data-name="Path 3929" d="M21.249-9969.44a12.063,12.063,0,0,0-3.557-8.588,12.062,12.062,0,0,0-8.588-3.557,12.062,12.062,0,0,0-8.588,3.557,12.063,12.063,0,0,0-3.557,8.588,1.5,1.5,0,0,1-1.5,1.5,1.5,1.5,0,0,1-1.5-1.5,15.048,15.048,0,0,1,1.154-5.8,15.045,15.045,0,0,1,3.283-4.913,15.057,15.057,0,0,1,4.914-3.283,15.046,15.046,0,0,1,5.8-1.153,15.046,15.046,0,0,1,5.8,1.153,15.057,15.057,0,0,1,4.914,3.283,15.045,15.045,0,0,1,3.283,4.913,15.048,15.048,0,0,1,1.154,5.8,1.5,1.5,0,0,1-1.5,1.5A1.5,1.5,0,0,1,21.249-9969.44Zm10.629-37.316a7.285,7.285,0,0,1-2.368-1.584,7.229,7.229,0,0,1-1.581-2.367,7.247,7.247,0,0,1-.555-2.793,1.5,1.5,0,0,1,1.5-1.5,1.5,1.5,0,0,1,1.5,1.5,4.259,4.259,0,0,0,.329,1.646,4.233,4.233,0,0,0,.93,1.393,4.287,4.287,0,0,0,1.395.933,4.287,4.287,0,0,0,1.644.326,4.287,4.287,0,0,0,1.644-.326,4.287,4.287,0,0,0,1.395-.933,4.32,4.32,0,0,0,.932-1.393,4.3,4.3,0,0,0,.327-1.646,1.5,1.5,0,0,1,1.5-1.5,1.5,1.5,0,0,1,1.5,1.5,7.247,7.247,0,0,1-.555,2.793,7.229,7.229,0,0,1-1.581,2.367,7.285,7.285,0,0,1-2.368,1.584,7.3,7.3,0,0,1-2.792.553A7.3,7.3,0,0,1,31.878-10006.757Zm-55.373,0a7.285,7.285,0,0,1-2.368-1.584,7.229,7.229,0,0,1-1.581-2.367A7.247,7.247,0,0,1-28-10013.5a1.5,1.5,0,0,1,1.5-1.5,1.5,1.5,0,0,1,1.5,1.5,4.259,4.259,0,0,0,.329,1.646,4.272,4.272,0,0,0,.93,1.393,4.287,4.287,0,0,0,1.395.933,4.287,4.287,0,0,0,1.644.326,4.287,4.287,0,0,0,1.644-.326,4.287,4.287,0,0,0,1.395-.933,4.279,4.279,0,0,0,.932-1.393,4.3,4.3,0,0,0,.327-1.646,1.5,1.5,0,0,1,1.5-1.5,1.5,1.5,0,0,1,1.5,1.5,7.229,7.229,0,0,1-.555,2.793,7.229,7.229,0,0,1-1.581,2.367,7.285,7.285,0,0,1-2.368,1.584,7.3,7.3,0,0,1-2.792.553A7.3,7.3,0,0,1-23.5-10006.757Z" transform="translate(953 10654.001)" fill="#929292"/>
  </g>
</svg>
