<svg xmlns="http://www.w3.org/2000/svg" width="16" height="20" viewBox="0 0 16 20">
  <path id="Path_3932" data-name="Path 3932" d="M-2933.6-4207.406c0-1.284,1.645-4.231,2.152-5.095a.772.772,0,0,1,.65-.379.77.77,0,0,1,.649.379c.508.864,2.152,3.79,2.152,5.095a2.862,2.862,0,0,1-2.8,2.906A2.862,2.862,0,0,1-2933.6-4207.406Zm1.99-1.958a.492.492,0,0,0-.284.21c-.041.084-1.015,1.705-.183,2.99a.451.451,0,0,0,.365.21.563.563,0,0,0,.244-.084.412.412,0,0,0,.183-.295.539.539,0,0,0-.061-.357c-.507-.779.162-1.916.2-1.979a.5.5,0,0,0-.122-.631.48.48,0,0,0-.254-.071A.582.582,0,0,0-2931.614-4209.363Zm-6.842-.147a3.206,3.206,0,0,1-1.645-.947l-2.944-3.053a3.4,3.4,0,0,1-.913-1.706,3.218,3.218,0,0,1,.833-2.758l4.873-5.052-.325-.337a.706.706,0,0,1,0-.947.646.646,0,0,1,.914,0l7.715,8.064a1.153,1.153,0,0,1,.263,1.158,1.043,1.043,0,0,1-.893.738l-1.3.147a.691.691,0,0,0-.467.252l-3.451,3.579a2.924,2.924,0,0,1-2.112.916A2.951,2.951,0,0,1-2938.456-4209.511Zm-3.776-7.537a1.78,1.78,0,0,0-.386.653h10.76l-5.5-5.706Z" transform="translate(2944 4224.5)"/>
</svg>
