<svg xmlns="http://www.w3.org/2000/svg" width="20" height="20" viewBox="0 0 20 20">
  <path id="Path_3933" data-name="Path 3933" d="M9,2.476a1,1,0,0,0-2,0v.494c-.5.008-.937.025-1.325.064a4.112,4.112,0,0,0-1.952.623,3.953,3.953,0,0,0-1.013.988,3.879,3.879,0,0,0-.639,1.9C2.006,7.165,2,7.918,2,8.817V14.74a26.142,26.142,0,0,0,.119,3.273,3.822,3.822,0,0,0,1.053,2.345,4.011,4.011,0,0,0,2.4,1.027,28.129,28.129,0,0,0,3.354.116h6.141a28.132,28.132,0,0,0,3.355-.116,4.011,4.011,0,0,0,2.4-1.027,3.823,3.823,0,0,0,1.053-2.345A26.152,26.152,0,0,0,22,14.74V8.817c0-.9-.006-1.652-.072-2.268a3.879,3.879,0,0,0-.639-1.9,3.953,3.953,0,0,0-1.013-.988,4.112,4.112,0,0,0-1.952-.623c-.388-.04-.829-.057-1.325-.064V2.476a1,1,0,0,0-2,0v.488H9ZM20,8.817c0-.914-.007-1.56-.061-2.065a2.018,2.018,0,0,0-.294-1,1.975,1.975,0,0,0-.506-.494,2.143,2.143,0,0,0-1.021-.287c-.311-.032-.674-.047-1.117-.054V5.4a1,1,0,0,1-2,0V4.915H9V5.4a1,1,0,0,1-2,0V4.921c-.443.007-.806.022-1.117.054a2.142,2.142,0,0,0-1.021.287,1.976,1.976,0,0,0-.506.494,2.018,2.018,0,0,0-.294,1C4.007,7.257,4,7.9,4,8.817ZM4,10.768v3.9a25.411,25.411,0,0,0,.1,3.082,1.942,1.942,0,0,0,.485,1.225,2.041,2.041,0,0,0,1.256.473,27.355,27.355,0,0,0,3.159.1h6a27.356,27.356,0,0,0,3.159-.1,2.041,2.041,0,0,0,1.256-.473,1.941,1.941,0,0,0,.485-1.225,25.41,25.41,0,0,0,.1-3.082v-3.9Z" transform="translate(-2 -1.5)" fill-rule="evenodd"/>
</svg>
