<svg xmlns="http://www.w3.org/2000/svg" xmlns:xlink="http://www.w3.org/1999/xlink" width="46" height="45" viewBox="0 0 46 45">
  <defs>
    <clipPath id="clip-path">
      <rect width="46" height="45" fill="none"/>
    </clipPath>
  </defs>
  <g id="icon" clip-path="url(#clip-path)">
    <g id="icon-2" data-name="icon" transform="translate(-254 -172)">
      <path id="Path_3927" data-name="Path 3927" d="M-2644.424-1398a4.576,4.576,0,0,1-4.576-4.577v-35.847a4.575,4.575,0,0,1,4.576-4.576h12.966a4.572,4.572,0,0,1,3.813,2.045c0-.267.015-.106.035.053a4.553,4.553,0,0,1,.694,1.911c.2,1.295,2.16,2.051,3.729,2.091v0h15.374a4.575,4.575,0,0,1,4.576,4.576v29.746a4.576,4.576,0,0,1-4.576,4.577Z" transform="translate(2903 1615)" fill="#576e04"/>
      <rect id="Rectangle_124" data-name="Rectangle 124" width="24" height="34" rx="2" transform="translate(258 183)" fill="#fff" opacity="0.72"/>
      <rect id="Rectangle_126" data-name="Rectangle 126" width="25" height="36" rx="2" transform="translate(267 181)" fill="#fff" opacity="0.72"/>
      <rect id="Rectangle_127" data-name="Rectangle 127" width="25" height="34" rx="2" transform="translate(272 183)" fill="#fff" opacity="0.72"/>
      <rect id="Rectangle_125" data-name="Rectangle 125" width="46" height="31" rx="4" transform="translate(254 186)" fill="#8db304"/>
    </g>
  </g>
</svg>
