<svg xmlns="http://www.w3.org/2000/svg" width="21" height="17" viewBox="0 0 21 17">
  <path id="Path_3899" data-name="Path 3899" d="M7123.07-7155.251H7114v-1.5h9.07a.032.032,0,0,1,0,.007A4,4,0,0,1,7127-7160a3.936,3.936,0,0,1,3.929,3.25H7134v1.5h-3.071A4,4,0,0,1,7127-7152,4.005,4.005,0,0,1,7123.07-7155.251Zm1.432-.749a2.5,2.5,0,0,0,2.5,2.5,2.5,2.5,0,0,0,2.5-2.5,2.5,2.5,0,0,0-2.5-2.5A2.5,2.5,0,0,0,7124.5-7156Zm-1.434-.731h0Zm-6-6.52H7114v-1.5h3.071A3.94,3.94,0,0,1,7121-7168a4,4,0,0,1,3.932,3.265c0,.005,0,.007,0,.009a.188.188,0,0,1-.005-.023H7134v1.5h-9.07A4,4,0,0,1,7121-7160,4,4,0,0,1,7117.07-7163.251Zm1.429-.748a2.5,2.5,0,0,0,2.5,2.5,2.5,2.5,0,0,0,2.5-2.5,2.5,2.5,0,0,0-2.5-2.5A2.5,2.5,0,0,0,7118.5-7164Z" transform="translate(-7113.5 7168.5)" fill="#e97907" stroke="rgba(0,0,0,0)" stroke-width="1"/>
</svg>
