<svg xmlns="http://www.w3.org/2000/svg" width="20" height="19" viewBox="0 0 20 19">
  <path id="Path_3919" data-name="Path 3919" d="M182.826,99.5l6.554-.013a.728.728,0,0,1,.431,1.32l-5.31,3.823,2.037,6.2a.717.717,0,0,1-.266.816.726.726,0,0,1-.862,0l-5.295-3.844-5.295,3.844a.725.725,0,0,1-.862,0,.717.717,0,0,1-.266-.816l2.037-6.2-5.31-3.823a.728.728,0,0,1,.431-1.32l6.554.013,2.013-6.207a.734.734,0,0,1,1.394,0l2.013,6.207Z" transform="translate(-170.116 -92.787)" fill="#f9b122" fill-rule="evenodd"/>
</svg>
